<?xml version="1.0" standalone="no"?>
<!DOCTYPE svg PUBLIC "-//W3C//DTD SVG 20010904//EN"
 "http://www.w3.org/TR/2001/REC-SVG-20010904/DTD/svg10.dtd">
<svg version="1.0" xmlns="http://www.w3.org/2000/svg"
 width="394.000000pt" height="394.000000pt" viewBox="0 0 394.000000 394.000000"
 preserveAspectRatio="xMidYMid meet">
<metadata>
Created by potrace 1.14, written by Peter Selinger 2001-2017
</metadata>
<g transform="translate(0.000000,394.000000) scale(0.100000,-0.100000)"
fill="#000000" stroke="none">
<path d="M1865 3928 c-413 -54 -828 -224 -1090 -448 -56 -48 -190 -185 -230
-235 -21 -27 -42 -52 -45 -55 -13 -13 -70 -90 -70 -95 0 -4 -6 -13 -12 -20
-26 -29 -38 -44 -38 -49 0 -3 -13 -25 -30 -49 -16 -25 -30 -49 -30 -55 0 -6
-4 -12 -9 -14 -8 -3 -127 -224 -129 -241 -1 -4 -9 -21 -17 -37 -9 -17 -13 -30
-9 -30 4 0 2 -6 -4 -12 -11 -14 -69 -185 -77 -227 -3 -14 -7 -37 -10 -51 -3
-14 -8 -40 -11 -59 -3 -18 -8 -43 -10 -55 -16 -79 -24 -325 -15 -471 3 -44 23
-186 36 -255 7 -41 51 -181 75 -240 31 -78 131 -270 142 -270 4 0 8 -5 8 -11
0 -50 306 -375 409 -433 9 -5 18 -12 21 -16 12 -15 188 -118 194 -113 3 4 6 1
6 -6 0 -7 4 -9 10 -6 5 3 10 3 10 -2 0 -4 17 -16 38 -25 132 -61 274 -118 294
-118 8 0 18 -4 24 -9 9 -8 140 -45 194 -55 46 -8 95 -16 125 -21 145 -23 384
15 645 102 143 48 287 105 332 131 89 52 -11 127 -167 126 -57 -1 -122 -11
-225 -37 -80 -20 -176 -41 -215 -47 -79 -13 -236 -12 -280 2 -16 5 -37 11 -45
13 -40 10 -134 46 -146 56 -8 6 -14 9 -14 5 0 -15 -320 157 -328 176 -2 4 -9
8 -15 8 -32 1 -47 31 -71 146 -20 94 -24 140 -21 221 2 56 6 107 10 113 4 6 9
26 11 43 7 49 44 167 65 208 24 49 90 114 142 141 23 13 78 33 122 44 131 36
230 22 373 -50 40 -20 75 -37 79 -38 17 -5 51 -37 132 -121 46 -48 90 -87 97
-87 8 0 14 -7 14 -15 0 -8 -4 -15 -9 -15 -18 0 -87 -82 -107 -129 -20 -44 -22
-65 -20 -183 2 -157 18 -204 90 -264 59 -49 106 -65 196 -66 117 -2 207 49
255 142 25 49 28 66 30 194 1 95 -2 130 -17 170 -10 28 -23 53 -28 54 -6 2
-10 9 -10 16 0 7 -17 25 -39 41 -33 26 -38 33 -30 53 12 32 11 92 -1 92 -6 0
-9 3 -8 8 4 11 -26 72 -34 72 -5 0 -8 4 -8 10 0 5 -18 37 -40 71 -22 34 -40
68 -40 76 0 7 -5 13 -10 13 -6 0 -9 3 -8 8 1 8 -6 27 -35 92 -11 25 -20 50
-21 55 -1 6 -6 24 -13 40 -32 85 -36 105 -37 203 -1 40 -5 72 -11 72 -5 0 -4
4 3 9 8 4 13 11 13 15 -1 3 -1 7 0 9 0 1 3 16 5 32 3 17 14 56 25 88 59 173
146 267 281 303 128 34 230 35 305 3 71 -30 163 -92 158 -106 -2 -7 1 -13 7
-13 6 0 8 -3 5 -6 -3 -4 -1 -16 5 -28 7 -11 13 -29 15 -39 2 -10 10 -32 19
-49 8 -16 17 -37 19 -46 5 -25 55 -174 66 -197 6 -12 11 -27 13 -35 9 -46 86
-220 120 -270 112 -168 311 -254 463 -200 121 43 172 136 210 390 12 83 5 420
-9 420 -3 0 -5 13 -4 30 1 17 -1 30 -5 30 -4 0 -6 9 -4 20 2 11 1 20 -3 20 -4
0 -8 15 -9 33 -3 30 -10 72 -13 72 -1 0 -8 32 -13 65 -1 8 -6 20 -10 27 -4 6
-8 23 -9 37 -1 14 -6 26 -10 26 -4 0 -7 3 -6 8 3 15 -26 102 -35 102 -4 0 -6
4 -2 9 3 5 1 12 -5 16 -6 4 -8 10 -5 15 3 4 -2 13 -10 20 -8 7 -13 16 -10 20
3 4 -2 13 -10 20 -8 7 -15 18 -15 24 0 15 -109 179 -121 184 -5 2 -9 7 -9 12
0 35 -353 380 -389 380 -6 0 -11 4 -11 9 0 16 -305 192 -318 183 -1 -2 -15 4
-30 11 -68 35 -342 119 -426 132 -21 3 -41 7 -45 9 -3 2 -28 7 -56 10 -27 3
-68 9 -90 12 -60 10 -272 11 -340 2z m444 -2750 c19 -6 44 -21 55 -32 42 -44
50 -69 51 -166 3 -130 -17 -180 -84 -215 -43 -22 -127 -17 -163 11 -35 26 -64
83 -63 122 1 17 -2 32 -7 32 -4 0 -6 6 -3 13 2 6 7 39 10 72 3 33 6 66 7 73 1
6 6 12 11 12 6 0 8 3 4 6 -10 10 26 46 64 63 46 21 75 23 118 9z"/>
<path d="M3315 1301 c-43 -11 -87 -36 -109 -62 -22 -26 -58 -119 -47 -119 4 0
7 -10 6 -22 -4 -55 38 -114 105 -147 19 -10 73 -28 119 -41 115 -32 152 -72
117 -125 -26 -39 -110 -52 -173 -28 -28 11 -83 60 -83 73 0 20 -26 21 -73 0
-54 -24 -59 -42 -25 -86 62 -79 125 -112 225 -118 159 -8 265 65 269 187 4
107 -59 169 -216 212 -107 29 -142 52 -136 88 3 12 5 28 5 34 1 18 55 43 91
43 45 0 95 -26 126 -66 l27 -33 46 26 c25 14 49 27 53 30 12 6 -21 54 -65 94
-63 58 -169 82 -262 60z"/>
<path d="M1750 970 c0 -181 3 -330 8 -331 4 -1 33 -2 64 -3 52 -2 57 0 61 21
2 13 0 23 -5 23 -5 0 -4 8 1 18 6 10 6 24 1 32 -5 8 -6 18 -3 24 10 15 10 86
0 86 -4 0 -5 5 -1 12 11 18 11 82 -1 90 -6 5 -5 8 3 8 9 0 10 5 3 19 -6 10 -7
21 -4 25 10 9 10 86 0 86 -4 0 -5 5 -1 11 11 19 11 89 0 89 -7 0 -8 3 -1 8 12
9 14 62 3 62 -5 0 -4 9 2 19 13 26 7 28 -67 30 l-63 1 0 -330z"/>
<path d="M2636 1285 c-3 -8 -1 -15 5 -15 6 0 7 -5 3 -12 -10 -16 -12 -78 -3
-78 4 0 3 -16 -1 -35 -5 -21 -4 -35 1 -35 6 0 6 -8 2 -17 -10 -23 -10 -84 0
-100 5 -7 4 -13 0 -13 -10 0 -10 -47 0 -56 3 -3 2 -17 -3 -30 -6 -16 -6 -24 1
-24 6 0 7 -5 3 -11 -10 -16 -11 -99 -1 -99 4 0 5 -6 1 -12 -10 -16 -13 -48 -5
-48 4 0 6 -14 6 -32 l0 -32 215 -1 c184 0 216 2 221 15 4 8 2 23 -3 34 -7 12
-7 16 0 12 6 -3 9 7 8 24 l-1 30 -157 0 -158 0 0 84 0 85 113 0 c61 0 127 0
145 1 l32 0 0 58 0 57 -142 0 -143 0 -3 73 c-2 53 0 72 10 73 7 0 76 1 153 2
l140 2 0 55 0 55 -217 2 c-182 2 -217 0 -222 -12z"/>
</g>
</svg>
